HIERARCHY
ROOT Hips
{
	OFFSET 0.000000 0.000000 0.000000
	CHANNELS 6 Xposition Yposition Zposition Zrotation Yrotation Xrotation 
	JOINT Hips_Spine
	{
		OFFSET 0.000000 0.000000 0.000000
		CHANNELS 3 Zrotation Yrotation Xrotation
		JOINT Spine
		{
			OFFSET 0.005100 8.711998 -0.691000
			CHANNELS 3 Zrotation Yrotation Xrotation
			JOINT Spine1
			{
				OFFSET -0.009200 8.660301 -1.275000
				CHANNELS 3 Zrotation Yrotation Xrotation
				JOINT Spine2
				{
					OFFSET 0.006300 9.852501 -1.857000
					CHANNELS 3 Zrotation Yrotation Xrotation
					JOINT Spine2_Neck
					{
						OFFSET 0.000000 0.000000 0.000000
						CHANNELS 3 Zrotation Yrotation Xrotation
						JOINT Neck
						{
							OFFSET 0.016300 11.420799 -0.263300
							CHANNELS 3 Zrotation Yrotation Xrotation
							End Site #name: Head
							{
								OFFSET -0.019200 9.262405 2.362500
							}
						}
					}
					JOINT Spine2_LeftShoulder
					{
						OFFSET 0.000000 0.000000 0.000000
						CHANNELS 3 Zrotation Yrotation Xrotation
						JOINT LeftShoulder
						{
							OFFSET 5.616900 6.732201 -0.345700
							CHANNELS 3 Zrotation Yrotation Xrotation
							JOINT LeftArm
							{
								OFFSET 10.664888 -0.183372 -2.440700
								CHANNELS 3 Zrotation Yrotation Xrotation
								JOINT LeftForeArm
								{
									OFFSET 27.459126 0.000000 0.000000
									CHANNELS 3 Zrotation Yrotation Xrotation
									End Site #name: LeftHand
									{
										OFFSET 21.306858 0.000000 0.000000
									}
								}
							}
						}
					}
					JOINT Spine2_RightShoulder
					{
						OFFSET 0.000000 0.000000 0.000000
						CHANNELS 3 Zrotation Yrotation Xrotation
						JOINT RightShoulder
						{
							OFFSET -5.580300 6.737503 -0.344400
							CHANNELS 3 Zrotation Yrotation Xrotation
							JOINT RightArm
							{
								OFFSET -10.679335 -0.188484 -2.383900
								CHANNELS 3 Zrotation Yrotation Xrotation
								JOINT RightForeArm
								{
									OFFSET -27.503529 0.000000 0.000000
									CHANNELS 3 Zrotation Yrotation Xrotation
									End Site #name: RightHand
									{
										OFFSET -21.306808 0.000000 0.000000
									}
								}
							}
						}
					}
				}
			}
		}
	}
	JOINT Hips_LeftUpLeg
	{
		OFFSET 0.000000 0.000000 0.000000
		CHANNELS 3 Zrotation Yrotation Xrotation
		JOINT LeftUpLeg
		{
			OFFSET 6.857700 -6.739601 0.312100
			CHANNELS 3 Zrotation Yrotation Xrotation
			JOINT LeftLeg
			{
				OFFSET -0.367590 -34.731552 -4.572400
				CHANNELS 3 Zrotation Yrotation Xrotation
				End Site #name: LeftFoot
				{
					OFFSET 0.367590 -34.656704 -6.067400
				}
			}
		}
	}
	JOINT Hips_RightUpLeg
	{
		OFFSET 0.000000 0.000000 0.000000
		CHANNELS 3 Zrotation Yrotation Xrotation
		JOINT RightUpLeg
		{
			OFFSET -6.876100 -6.733299 0.301000
			CHANNELS 3 Zrotation Yrotation Xrotation
			JOINT RightLeg
			{
				OFFSET 0.347353 -34.795158 -4.515900
				CHANNELS 3 Zrotation Yrotation Xrotation
				End Site #name: RightFoot
				{
					OFFSET -0.347353 -34.589367 -6.070300
				}
			}
		}
	}
}
MOTION
Frames: 9
Frame Time: 0.041667
-5.635729 -1.224849 -4.598357 -1.391707 3.035812 0.904771 0.000000 0.000000 -0.000000 6.753331 4.985564 8.596052 -0.522095 1.308329 2.887641 0.000000 0.000000 0.000000 -0.374924 0.945558 2.391590 1.836535 -2.043123 2.727947 -0.494152 1.084041 2.665277 -3.015480 0.680518 -0.111857 -71.651395 -9.031153 38.769546 0.093747 -19.602871 0.085882 -0.353598 1.078846 2.477778 -2.335102 21.359658 3.120623 26.737984 34.322993 -51.233256 -0.042190 60.409795 0.269587 0.000000 -0.000000 -0.000000 5.591503 10.992578 -23.139528 4.688707 0.828539 21.598270 0.000000 -0.000000 0.000000 1.456572 -10.774113 -26.267904 -3.527556 -6.320641 23.009474 
-5.808744 -1.278093 -4.557378 -1.213621 3.208181 1.320057 0.000000 0.000000 -0.000000 6.946773 4.817552 8.963331 -0.442278 1.278410 2.860364 0.000000 0.000000 0.000000 -0.259403 0.922342 2.402819 1.920909 -2.080352 2.646419 -0.387003 1.054096 2.660011 -3.011611 0.849061 -0.144145 -71.730082 -9.249559 39.030929 0.092521 -19.184450 0.101956 -0.261044 1.050900 2.448394 -1.414849 20.733954 3.291384 26.906262 33.575009 -49.786928 -0.056069 59.884709 0.262659 0.000000 -0.000000 -0.000000 5.534895 10.938629 -23.632066 4.810291 1.315066 21.654729 0.000000 -0.000000 0.000000 1.446047 -10.802762 -26.916411 -3.477260 -6.377403 23.616540 
-5.951194 -1.313667 -4.469591 -1.023089 3.376133 1.739623 0.000000 0.000000 -0.000000 7.088611 4.617325 9.270993 -0.360864 1.240800 2.827830 0.000000 0.000000 0.000000 -0.147993 0.893672 2.407829 2.001869 -2.112788 2.613828 -0.283067 1.014726 2.653410 -3.009761 1.003888 -0.172556 -71.817215 -9.411870 39.122870 0.090553 -18.796059 0.118346 -0.178417 1.015241 2.401837 -0.585887 20.066477 3.427648 27.467664 32.280214 -48.268761 -0.067574 59.438421 0.259272 0.000000 -0.000000 -0.000000 5.456099 10.851649 -24.022440 5.059110 2.019790 21.598865 0.000000 -0.000000 0.000000 1.413974 -10.860129 -27.461375 -3.429738 -6.427848 24.084356 
-6.069845 -1.334079 -4.343167 -0.830109 3.538679 2.162548 0.000000 0.000000 -0.000000 7.178334 4.395769 9.498107 -0.253466 1.197616 2.801740 0.000000 0.000000 0.000000 -0.038305 0.861534 2.406065 2.080597 -2.144660 2.601393 -0.178387 0.968124 2.644321 -3.035267 1.114383 -0.193158 -71.895069 -9.508905 39.094578 0.090067 -18.475262 0.134027 -0.095385 0.959559 2.354852 0.136012 19.352657 3.520479 28.055760 30.280578 -46.799355 -0.068967 59.200360 0.268016 0.000000 -0.000000 -0.000000 5.358576 10.740446 -24.307433 5.412320 2.884135 21.419615 0.000000 -0.000000 0.000000 1.370939 -10.942236 -27.902450 -3.403231 -6.483134 24.408930 
-6.171424 -1.341906 -4.186178 -0.646596 3.689320 2.587057 0.000000 0.000000 -0.000000 7.226079 4.153889 9.644649 -0.130299 1.149007 2.777794 0.000000 0.000000 0.000000 0.072332 0.825970 2.390596 2.154602 -2.174107 2.596987 -0.075192 0.915947 2.629653 -3.099817 1.165345 -0.201892 -71.961042 -9.533569 38.932976 0.089353 -18.217190 0.151852 -0.010556 0.894215 2.310691 0.740230 18.566809 3.568079 28.624528 28.305370 -45.574449 -0.069536 59.261349 0.279673 0.000000 -0.000000 -0.000000 5.256036 10.624039 -24.510523 5.623877 3.477530 21.143521 0.000000 -0.000000 0.000000 1.326031 -11.047469 -28.240238 -3.384370 -6.540545 24.596266 
-6.256143 -1.340591 -4.006101 -0.477909 3.813406 2.979240 0.000000 0.000000 -0.000000 7.230709 3.891861 9.711830 -0.003477 1.088681 2.741234 0.000000 0.000000 0.000000 0.177855 0.786986 2.374193 2.222070 -2.198467 2.595221 0.028550 0.856485 2.610969 -3.200136 1.161988 -0.201035 -72.024294 -9.485389 38.660927 0.088088 -18.053526 0.168120 0.077544 0.818257 2.260429 1.177973 17.638012 3.548343 29.114633 26.464271 -44.526120 -0.067872 59.629196 0.293961 0.000000 -0.000000 -0.000000 5.160818 10.521061 -24.637784 5.799739 4.053188 20.816449 0.000000 -0.000000 0.000000 1.280587 -11.154840 -28.482284 -3.371662 -6.608237 24.665268 
-6.324196 -1.333463 -3.810451 -0.328793 3.903460 3.327145 0.000000 0.000000 -0.000000 7.159562 3.580230 9.635434 0.122079 1.019984 2.700868 0.000000 0.000000 0.000000 0.288158 0.743189 2.354397 2.283712 -2.216562 2.591593 0.134689 0.788248 2.583942 -3.330520 1.105010 -0.191589 -72.083915 -9.369598 38.346452 0.086253 -17.976271 0.182137 0.169138 0.738566 2.209363 1.567108 16.766392 3.513151 29.751657 24.867280 -43.260164 -0.067939 60.211380 0.308158 0.000000 -0.000000 -0.000000 5.093014 10.436370 -24.684906 5.755086 4.339341 20.463721 0.000000 -0.000000 0.000000 1.233512 -11.244732 -28.633164 -3.362460 -6.677933 24.644855 
-6.375748 -1.323593 -3.607033 -0.203980 3.961750 3.616200 0.000000 0.000000 -0.000000 7.055594 3.237525 9.488349 0.250137 0.947904 2.650395 0.000000 0.000000 0.000000 0.403685 0.695989 2.328350 2.339575 -2.229719 2.584238 0.242143 0.714037 2.547823 -3.475830 1.004818 -0.175326 -72.139583 -9.207305 38.075069 0.083663 -17.987235 0.191365 0.267011 0.652556 2.142265 1.885627 16.012938 3.475296 30.347813 23.518906 -42.064836 -0.060002 60.870885 0.329859 0.000000 -0.000000 -0.000000 5.063529 10.361355 -24.639882 5.689455 4.619337 20.095664 0.000000 -0.000000 0.000000 1.192058 -11.320654 -28.688082 -3.349890 -6.739619 24.556747 
-6.410834 -1.314162 -3.403388 -0.102463 3.991069 3.846291 0.000000 0.000000 -0.000000 6.923423 2.897769 9.297723 0.363638 0.876076 2.593317 0.000000 0.000000 0.000000 0.510981 0.648901 2.301167 2.387679 -2.238973 2.571358 0.340882 0.639300 2.506322 -3.617020 0.879461 -0.156145 -72.178144 -8.993897 37.949932 0.080550 -18.053847 0.195591 0.369428 0.578597 2.088592 2.169648 15.424131 3.442023 30.926991 22.346684 -40.933931 -0.053849 61.430974 0.344205 0.000000 -0.000000 0.000000 5.071707 10.290162 -24.504208 5.604084 4.912987 19.715592 0.000000 -0.000000 0.000000 1.153416 -11.383157 -28.656895 -3.337046 -6.797627 24.426068 
